<?xml version="1.0" standalone="no"?>
<!DOCTYPE svg PUBLIC "-//W3C//DTD SVG 20010904//EN"
 "http://www.w3.org/TR/2001/REC-SVG-20010904/DTD/svg10.dtd">
<svg version="1.0" xmlns="http://www.w3.org/2000/svg"
 width="700.000000pt" height="700.000000pt" viewBox="0 0 700.000000 700.000000"
 preserveAspectRatio="xMidYMid meet">
<metadata>
Created by potrace 1.11, written by Peter Selinger 2001-2013
</metadata>
<g transform="translate(0.000000,700.000000) scale(0.100000,-0.100000)"
fill="#000000" stroke="none">
<path d="M3278 6995 c-1 -1 -42 -5 -89 -9 -47 -4 -95 -8 -105 -10 -10 -2 -45
-7 -78 -11 -144 -17 -352 -64 -531 -118 -228 -70 -557 -214 -739 -325 -37 -23
-70 -42 -71 -42 -9 0 -170 -111 -260 -178 -362 -272 -669 -611 -903 -999 -34
-56 -62 -105 -62 -108 0 -3 720 -5 1600 -5 880 0 1600 -2 1600 -6 0 -3 -13
-28 -29 -57 -15 -29 -61 -115 -102 -192 -40 -77 -86 -162 -101 -190 -14 -27
-37 -70 -49 -94 -12 -24 -43 -82 -69 -130 -25 -47 -79 -149 -120 -226 -40 -77
-85 -162 -100 -190 -15 -27 -51 -95 -80 -150 -29 -55 -67 -127 -85 -160 -74
-138 -191 -358 -265 -500 -34 -66 -75 -142 -90 -170 -15 -27 -51 -95 -80 -150
-74 -141 -202 -381 -260 -490 -37 -70 -89 -168 -176 -332 -26 -49 -66 -124
-89 -168 -23 -44 -66 -125 -95 -180 -29 -55 -68 -128 -86 -163 -19 -34 -34
-65 -34 -67 0 -3 180 -5 399 -5 l399 0 20 33 c10 17 54 100 97 182 43 83 81
155 85 160 4 6 42 78 85 160 43 83 81 155 85 160 4 6 36 66 72 135 70 133 302
572 373 705 53 98 367 691 443 835 30 58 67 128 82 155 15 28 53 100 85 160
32 61 74 139 93 175 19 36 59 112 89 170 31 58 70 132 88 165 18 33 54 101 80
150 26 50 70 132 97 183 l49 92 130 0 130 0 -47 -87 c-79 -147 -119 -224 -174
-328 -29 -55 -69 -129 -88 -165 -19 -36 -59 -112 -90 -170 -30 -58 -69 -132
-87 -165 -18 -33 -57 -107 -88 -165 -30 -58 -69 -132 -87 -165 -18 -33 -59
-112 -92 -175 -33 -63 -75 -142 -93 -175 -45 -83 -190 -355 -265 -500 -35 -66
-66 -124 -70 -130 -4 -5 -47 -86 -95 -180 -48 -93 -91 -174 -95 -180 -4 -5
-33 -59 -65 -120 -32 -60 -77 -146 -100 -190 -23 -44 -66 -125 -95 -180 -29
-55 -70 -131 -90 -170 -94 -177 -135 -255 -167 -312 l-33 -63 1674 -2 1675 -3
-92 -114 c-195 -245 -471 -497 -727 -666 -41 -28 -76 -53 -78 -57 -2 -5 -7 -8
-12 -8 -4 0 -37 -18 -73 -39 -235 -144 -618 -300 -869 -357 -10 -2 -28 -7 -40
-10 -42 -10 -273 -52 -318 -58 -152 -18 -209 -21 -435 -21 -221 0 -342 6 -425
20 -14 3 -41 7 -60 10 -203 32 -367 72 -575 140 -163 53 -474 199 -615 287
-326 204 -579 418 -808 683 -149 172 -315 420 -427 639 -66 129 -168 370 -193
456 -6 19 -20 67 -32 105 -12 39 -23 77 -24 85 -2 8 -9 33 -15 55 -5 22 -13
55 -16 74 -3 19 -7 37 -9 40 -2 3 -7 24 -10 46 -4 22 -8 47 -11 55 -7 24 -35
254 -41 333 -10 148 -5 452 11 587 9 83 17 145 21 165 2 11 8 45 14 75 17 91
19 102 40 190 52 210 152 486 236 651 24 47 44 88 44 92 0 4 -56 7 -124 7
l-123 0 -41 -87 c-82 -177 -167 -419 -208 -593 -16 -71 -54 -255 -58 -282 -3
-18 -7 -49 -11 -69 -6 -40 -10 -74 -22 -199 -15 -160 -8 -604 11 -707 2 -10 7
-43 10 -73 7 -62 12 -94 26 -165 6 -27 12 -59 14 -70 31 -163 115 -434 191
-620 41 -101 162 -344 200 -405 14 -22 25 -42 25 -45 0 -14 210 -314 287 -410
137 -171 397 -427 578 -567 6 -5 28 -22 50 -39 22 -17 85 -62 140 -99 307
-206 635 -360 979 -460 101 -29 111 -31 199 -50 27 -5 51 -12 55 -14 4 -2 25
-7 47 -10 22 -3 51 -8 65 -11 49 -9 86 -15 130 -20 25 -3 59 -8 75 -10 200
-25 668 -26 800 -1 11 2 45 7 75 10 67 8 94 12 250 42 237 45 591 169 840 294
197 99 453 260 586 369 17 15 42 35 55 45 149 118 373 341 499 496 25 30 47
57 50 60 7 6 89 120 152 210 56 81 159 252 154 258 -2 2 -758 3 -1680 3 -922
0 -1676 3 -1676 6 0 7 80 164 111 221 11 18 44 81 75 140 31 59 70 132 87 162
32 61 98 185 175 330 27 52 63 120 79 150 17 30 56 105 88 165 32 61 72 137
90 170 18 33 58 110 90 170 32 61 75 142 95 180 21 39 97 183 170 320 199 375
227 428 305 575 40 74 98 185 130 245 32 61 70 133 85 160 15 28 56 104 90
170 34 66 75 143 90 170 15 28 55 103 89 168 l62 117 -165 1 c-91 0 -222 0
-291 0 -365 0 -351 1 -363 -23 -6 -13 -44 -84 -83 -158 -66 -126 -98 -187
-211 -400 -25 -47 -105 -197 -178 -335 -73 -137 -147 -277 -165 -310 -18 -33
-61 -114 -95 -180 -35 -66 -93 -176 -130 -245 -36 -69 -69 -132 -73 -140 -4
-8 -23 -44 -43 -80 -20 -36 -58 -108 -86 -160 -27 -52 -78 -149 -114 -215 -35
-66 -78 -147 -95 -180 -17 -33 -42 -80 -55 -105 -14 -25 -59 -110 -101 -190
-42 -80 -83 -158 -93 -175 -9 -16 -50 -93 -90 -170 -40 -77 -76 -144 -80 -150
-4 -5 -39 -71 -78 -145 -38 -74 -85 -163 -103 -197 l-34 -62 -127 0 c-116 0
-127 1 -121 17 3 9 9 22 13 27 4 6 40 73 80 150 40 77 123 235 185 350 61 116
140 264 175 330 35 66 75 143 90 170 15 28 51 95 80 150 29 55 72 136 95 180
98 185 301 568 352 665 31 58 68 128 83 155 32 59 95 178 175 330 32 61 75
142 95 180 21 39 58 108 82 155 25 47 82 155 128 240 79 149 105 199 219 413
29 54 51 100 49 103 -3 2 -719 4 -1592 5 -1209 0 -1585 3 -1578 12 405 546
958 948 1595 1161 231 77 474 130 692 151 39 4 86 9 105 11 47 6 445 5 495 -1
22 -2 60 -7 85 -10 25 -3 68 -8 95 -11 73 -8 220 -35 328 -59 240 -54 591
-192 828 -326 118 -67 311 -191 373 -241 368 -293 617 -568 827 -913 84 -138
86 -142 148 -270 90 -182 174 -403 216 -566 10 -35 19 -71 21 -79 11 -40 53
-250 58 -290 3 -25 8 -56 11 -70 13 -68 19 -197 20 -420 0 -211 -9 -422 -20
-440 -1 -3 -6 -27 -9 -55 -4 -27 -9 -59 -11 -70 -3 -11 -7 -31 -9 -45 -3 -21
-23 -113 -41 -192 -37 -166 -138 -442 -230 -630 -25 -51 -45 -95 -45 -100 0
-4 56 -7 124 -7 l125 1 46 106 c71 163 149 374 171 467 1 6 16 66 33 135 30
122 55 248 66 340 3 25 8 63 11 85 14 111 21 249 19 430 -3 278 -22 449 -79
726 -49 233 -162 553 -278 784 -218 434 -490 785 -864 1115 -109 96 -438 330
-464 330 -5 0 -10 5 -10 10 0 6 -5 10 -10 10 -6 0 -29 12 -53 27 -69 43 -304
158 -427 208 -235 95 -523 176 -755 211 -27 4 -52 8 -55 9 -3 1 -39 5 -80 9
-41 4 -88 10 -105 13 -33 5 -531 13 -537 8z"/>
</g>
</svg>
