<svg viewBox="0 0 14 30" fill="#000" xmlns="http://www.w3.org/2000/svg">
   <path  d="M13 15.75C13.4142 15.75 13.75 15.4142 13.75 15L13.75 1C13.75 0.585787 13.4142 0.25 13 0.25C12.5858 0.25 12.25 0.585787 12.25 1L12.25 15C12.25 15.4142 12.5858 15.75 13 15.75ZM7 22.75C7.41421 22.75 7.75 22.4142 7.75 22L7.75 8C7.75 7.58579 7.41422 7.25 7 7.25C6.58579 7.25 6.25 7.58579 6.25 8L6.25 22C6.25 22.4142 6.58579 22.75 7 22.75ZM1 29.75C1.41421 29.75 1.75 29.4142 1.75 29L1.75 15C1.75 14.5858 1.41421 14.25 1 14.25C0.585787 14.25 0.250001 14.5858 0.250001 15L0.25 29C0.25 29.4142 0.585787 29.75 1 29.75Z" />
</svg>
