<svg width="52" height="52" viewBox="0 0 52 52" fill="#191919" xmlns="http://www.w3.org/2000/svg">
<path d="M4.73065 39.336C4.36265 39.336 4.00265 39.144 3.80535 38.8026C1.56535 34.928 0.381348 30.5013 0.381348 26C0.381348 11.8746 11.8746 0.381348 26 0.381348C32.3626 0.381348 38.464 2.73065 43.1786 6.99465C43.616 7.38935 43.648 8.06405 43.2533 8.50135C42.8586 8.93865 42.184 8.97335 41.7466 8.57605C37.4266 4.66935 31.8346 2.51465 26 2.51465C13.0506 2.51465 2.51465 13.0506 2.51465 26C2.51465 30.1253 3.60005 34.184 5.65065 37.7333C5.94665 38.2426 5.77065 38.896 5.26135 39.1893C5.09335 39.288 4.91205 39.336 4.73065 39.336Z" />
<path d="M26.0001 51.6187C18.3227 51.6187 11.1147 48.2187 6.22666 42.2881C5.85066 41.8347 5.91736 41.16 6.37066 40.7867C6.82406 40.4107 7.49606 40.4774 7.87206 40.9307C12.3547 46.3654 18.9627 49.4854 26.0001 49.4854C38.9494 49.4854 49.4854 38.9494 49.4854 26.0001C49.4854 20.7361 47.7841 15.7627 44.5654 11.6134C44.2054 11.1467 44.2881 10.4774 44.7547 10.1174C45.2214 9.75736 45.8907 9.84006 46.2507 10.3067C49.7627 14.8321 51.6187 20.2587 51.6187 26.0001C51.6187 40.1254 40.1254 51.6187 26.0001 51.6187Z" />
<path fill-rule="evenodd" clip-rule="evenodd" d="M16.1161 17.1161C16.6043 16.628 17.3957 16.628 17.8839 17.1161L34.8839 34.1161C35.372 34.6043 35.372 35.3957 34.8839 35.8839C34.3957 36.372 33.6043 36.372 33.1161 35.8839L16.1161 18.8839C15.628 18.3957 15.628 17.6043 16.1161 17.1161Z" />
<path fill-rule="evenodd" clip-rule="evenodd" d="M34.8839 17.1161C34.3957 16.628 33.6043 16.628 33.1161 17.1161L16.1161 34.1161C15.628 34.6043 15.628 35.3957 16.1161 35.8839C16.6043 36.372 17.3957 36.372 17.8839 35.8839L34.8839 18.8839C35.372 18.3957 35.372 17.6043 34.8839 17.1161Z" />
</svg>
