<svg xmlns="http://www.w3.org/2000/svg" viewBox="0 0 477.867 477.867" fill='#fff'>
   <path d="M238.933 0C106.974 0 0 106.974 0 238.933s106.974 238.933 238.933 238.933 238.933-106.974 238.933-238.933C477.726 107.033 370.834.141 238.933 0zm0 443.733c-113.108 0-204.8-91.692-204.8-204.8s91.692-204.8 204.8-204.8 204.8 91.692 204.8 204.8c-.122 113.058-91.742 204.678-204.8 204.8z"/>
   <path d="M339.557 231.32a17.0676 17.0676 0 00-7.662-7.662l-136.533-68.267c-8.432-4.213-18.682-.794-22.896 7.638a17.0685 17.0685 0 00-1.8 7.637V307.2c-.004 9.426 7.633 17.07 17.059 17.075 2.651.001 5.266-.615 7.637-1.8l136.533-68.267c8.436-4.204 11.867-14.452 7.662-22.888zM204.8 279.586V198.28l81.306 40.653-81.306 40.653z"/>
</svg>
