<svg width="22" height="20" viewBox="0 0 22 20" fill="none" xmlns="http://www.w3.org/2000/svg">
<path fill-rule="evenodd" clip-rule="evenodd" d="M5.16667 10.75H1V9.25H5.16667V10.75ZM15.1667 10.75H6.83333V9.25H15.1667V10.75ZM21 10.75H16.8333V9.25H21V10.75Z" fill="#2E2A28"/>
<path fill-rule="evenodd" clip-rule="evenodd" d="M3 1.75C2.30964 1.75 1.75 2.30964 1.75 3V4H0.25V3C0.25 1.48122 1.48122 0.25 3 0.25H4V1.75H3ZM18 0.25H19C20.5188 0.25 21.75 1.48122 21.75 3V4H20.25V3C20.25 2.30964 19.6904 1.75 19 1.75H18V0.25ZM0.25 17V16H1.75V17C1.75 17.6904 2.30964 18.25 3 18.25H4V19.75H3C1.48122 19.75 0.25 18.5188 0.25 17ZM20.25 17V16H21.75V17C21.75 18.5188 20.5188 19.75 19 19.75H18V18.25H19C19.6904 18.25 20.25 17.6904 20.25 17Z" fill="#2E2A28"/>
</svg>
