<svg  viewBox="0 0 1280 339" fill="#f5f5f5" xmlns="http://www.w3.org/2000/svg">
<path d="M130.465 311.36L131.387 312.543L131.387 312.543L130.465 311.36ZM-22.655 328.64L-23.0345 330.091L-23.0291 330.093L-22.655 328.64ZM-72.095 304.16L-73.5836 303.975L-73.6804 304.754L-73.0952 305.278L-72.095 304.16ZM-62.495 226.88L-62.3554 225.387L-63.8042 225.251L-63.9836 226.695L-62.495 226.88ZM-11.135 231.68L-9.63512 231.699L-9.6176 230.315L-10.9954 230.187L-11.135 231.68ZM-11.615 269.6L-13.1149 269.581L-13.1265 270.497L-12.3168 270.926L-11.615 269.6ZM16.225 280.16L15.9784 281.64L16.0086 281.645L16.039 281.648L16.225 280.16ZM77.665 275.36L78.2007 276.761L78.2185 276.754L78.2361 276.747L77.665 275.36ZM74.785 210.56L74.1414 211.915L74.1554 211.922L74.1695 211.928L74.785 210.56ZM29.665 196.64L29.9381 195.165L29.9274 195.163L29.9167 195.161L29.665 196.64ZM-15.935 185.6L-16.4184 187.02L-16.4005 187.026L-16.3824 187.032L-15.935 185.6ZM-53.855 161.12L-54.9761 162.117L-54.9691 162.124L-54.962 162.132L-53.855 161.12ZM-33.695 36.8L-32.9284 38.0893L-32.922 38.0855L-32.9156 38.0816L-33.695 36.8ZM102.625 24.8L102.136 26.218L102.147 26.2218L102.158 26.2254L102.625 24.8ZM145.345 49.76L146.844 49.6962L146.82 49.1393L146.438 48.733L145.345 49.76ZM148.225 117.44L148.365 118.933L149.784 118.801L149.724 117.376L148.225 117.44ZM96.865 122.24L95.3754 122.416L95.5475 123.87L97.0046 123.733L96.865 122.24ZM92.545 85.76L94.0346 85.5836L93.9541 84.9043L93.3885 84.5196L92.545 85.76ZM68.065 74.72L67.7149 76.1786L67.7277 76.1816L68.065 74.72ZM12.385 78.56L11.6945 77.2284L11.6841 77.2338L11.6739 77.2393L12.385 78.56ZM16.225 129.44L16.8637 128.083L16.8637 128.083L16.225 129.44ZM53.665 141.92L53.3326 143.383L53.3516 143.387L53.3708 143.391L53.665 141.92ZM98.305 152.96L97.8965 154.403L97.9125 154.408L97.9286 154.412L98.305 152.96ZM143.425 178.88L142.364 179.941L142.378 179.954L142.391 179.967L143.425 178.88ZM161.605 237.44C161.605 269.387 150.873 293.552 129.543 310.177L131.387 312.543C153.577 295.248 164.605 270.133 164.605 237.44H161.605ZM129.543 310.177C108.131 326.866 78.5761 335.3 40.705 335.3V338.3C78.9939 338.3 109.279 329.774 131.387 312.543L129.543 310.177ZM40.705 335.3C19.7153 335.3 -1.27906 332.597 -22.2808 327.187L-23.0291 330.093C-1.79092 335.563 19.4547 338.3 40.705 338.3V335.3ZM-22.2755 327.189C-42.9154 321.791 -59.1596 313.721 -71.0948 303.042L-73.0952 305.278C-60.7104 316.359 -43.9946 324.609 -23.0345 330.091L-22.2755 327.189ZM-70.6064 304.345L-61.0064 227.065L-63.9836 226.695L-73.5836 303.975L-70.6064 304.345ZM-62.6346 228.373L-11.2746 233.173L-10.9954 230.187L-62.3554 225.387L-62.6346 228.373ZM-12.6349 231.661L-13.1149 269.581L-10.1151 269.619L-9.63512 231.699L-12.6349 231.661ZM-12.3168 270.926C-1.36708 276.723 8.07462 280.322 15.9784 281.64L16.4716 278.68C9.01539 277.438 -0.102912 273.997 -10.9132 268.274L-12.3168 270.926ZM16.039 281.648C23.7572 282.613 30.3829 283.1 35.905 283.1V280.1C30.5471 280.1 24.0528 279.627 16.4111 278.672L16.039 281.648ZM35.905 283.1C52.972 283.1 67.0906 281.009 78.2007 276.761L77.1293 273.959C66.4794 278.031 52.7581 280.1 35.905 280.1V283.1ZM78.2361 276.747C83.9866 274.379 88.3359 270.506 91.225 265.152C94.0987 259.828 95.485 253.121 95.485 245.12H92.485C92.485 252.799 91.1513 258.972 88.585 263.728C86.0341 268.454 82.2234 271.861 77.0939 273.973L78.2361 276.747ZM95.485 245.12C95.485 236.302 93.8527 228.833 90.4962 222.792C87.1288 216.73 82.0749 212.196 75.4006 209.192L74.1695 211.928C80.2952 214.684 84.8413 218.79 87.8738 224.248C90.9173 229.727 92.485 236.658 92.485 245.12H95.485ZM75.4286 209.205C62.4866 203.058 47.317 198.383 29.9381 195.165L29.3919 198.115C46.573 201.297 61.4834 205.902 74.1414 211.915L75.4286 209.205ZM29.9167 195.161C14.9464 192.613 -0.188218 188.949 -15.4876 184.168L-16.3824 187.032C-0.961775 191.851 14.3036 195.547 29.4133 198.119L29.9167 195.161ZM-15.4516 184.18C-30.2643 179.137 -42.6863 171.113 -52.748 160.108L-54.962 162.132C-44.5437 173.527 -31.6856 181.823 -16.4184 187.02L-15.4516 184.18ZM-52.7339 160.123C-62.6394 148.98 -67.715 132.436 -67.715 110.24H-70.715C-70.715 132.844 -65.5506 150.22 -54.9761 162.117L-52.7339 160.123ZM-67.715 110.24C-67.715 75.7267 -56.0296 51.8251 -32.9284 38.0893L-34.4616 35.5107C-58.7204 49.9348 -70.715 74.9933 -70.715 110.24H-67.715ZM-32.9156 38.0816C-9.47444 23.8269 16.1752 16.7 44.065 16.7V13.7C15.6348 13.7 -10.5555 20.9731 -34.4744 35.5184L-32.9156 38.0816ZM44.065 16.7C64.3859 16.7 83.7401 19.8746 102.136 26.218L103.114 23.3819C84.39 16.9254 64.7042 13.7 44.065 13.7V16.7ZM102.158 26.2254C120.559 32.2533 134.553 40.4629 144.252 50.787L146.438 48.733C136.297 37.9371 121.811 29.5067 103.092 23.3745L102.158 26.2254ZM143.846 49.8238L146.726 117.504L149.724 117.376L146.844 49.6962L143.846 49.8238ZM148.085 115.946L96.7254 120.747L97.0046 123.733L148.365 118.933L148.085 115.946ZM98.3546 122.064L94.0346 85.5836L91.0554 85.9364L95.3754 122.416L98.3546 122.064ZM93.3885 84.5196C85.2552 78.9889 76.9257 75.2253 68.4023 73.2584L67.7277 76.1816C75.8443 78.0546 83.8348 81.651 91.7015 87.0004L93.3885 84.5196ZM68.4151 73.2614C60.3085 71.3158 52.351 70.34 44.545 70.34V73.34C52.099 73.34 59.8215 74.2841 67.7149 76.1786L68.4151 73.2614ZM44.545 70.34C31.5776 70.34 20.6044 72.6084 11.6945 77.2284L13.0755 79.8916C21.4456 75.5515 31.9124 73.34 44.545 73.34V70.34ZM11.6739 77.2393C2.76866 82.0344 -1.595 90.451 -1.595 102.08H1.405C1.405 91.309 5.36135 84.0456 13.0962 79.8807L11.6739 77.2393ZM-1.595 102.08C-1.595 108.847 -0.19104 114.687 2.69677 119.528C5.5895 124.378 9.91298 128.127 15.5863 130.797L16.8637 128.083C11.657 125.633 7.82051 122.262 5.27323 117.992C2.72105 113.713 1.405 108.433 1.405 102.08H-1.595ZM15.5863 130.797C26.5815 135.971 39.1673 140.163 53.3326 143.383L53.9974 140.457C40.0027 137.277 27.6285 133.149 16.8637 128.083L15.5863 130.797ZM53.3708 143.391C66.1218 145.941 80.9622 149.611 97.8965 154.403L98.7135 151.517C81.7279 146.709 66.8083 143.019 53.9592 140.449L53.3708 143.391ZM97.9286 154.412C114.946 158.824 129.751 167.327 142.364 179.941L144.486 177.819C131.499 164.833 116.224 156.056 98.6815 151.508L97.9286 154.412ZM142.391 179.967C155.098 192.054 161.605 211.098 161.605 237.44H164.605C164.605 210.662 157.992 190.666 144.459 177.793L142.391 179.967ZM400.053 263.84L401.547 263.965L401.66 262.612L400.326 262.365L400.053 263.84ZM371.733 314.72L370.76 313.578L370.76 313.578L371.733 314.72ZM219.093 309.44L218.103 310.568L218.112 310.575L219.093 309.44ZM216.213 144.8L215.074 143.824L215.072 143.825L216.213 144.8ZM369.333 137.12L368.31 138.218L368.32 138.227L369.333 137.12ZM398.133 205.28H399.633V205.271L399.632 205.263L398.133 205.28ZM394.773 236.48V237.98H395.98L396.238 236.801L394.773 236.48ZM252.693 236.48V234.98H251.03L251.2 236.633L252.693 236.48ZM337.173 275.84L335.978 274.932L335.967 274.948L335.955 274.964L337.173 275.84ZM348.213 254.24L348.486 252.765L347.032 252.496L346.742 253.946L348.213 254.24ZM334.293 200.48V201.98H335.626L335.782 200.655L334.293 200.48ZM327.093 169.76L325.806 170.532L325.816 170.547L325.825 170.563L327.093 169.76ZM266.613 167.84L267.758 168.809L267.758 168.809L266.613 167.84ZM253.173 200.48L251.688 200.268L251.443 201.98H253.173V200.48ZM398.558 263.715C396.996 282.451 387.796 299.066 370.76 313.578L372.705 315.862C390.229 300.934 399.909 283.629 401.547 263.965L398.558 263.715ZM370.76 313.578C353.837 327.994 330.067 335.3 299.253 335.3V338.3C330.518 338.3 355.068 330.886 372.705 315.862L370.76 313.578ZM299.253 335.3C267.232 335.3 240.878 326.273 220.073 308.305L218.112 310.575C239.547 329.087 266.633 338.3 299.253 338.3V335.3ZM220.081 308.312C199.699 290.438 189.393 263.709 189.393 227.84H186.393C186.393 264.291 196.886 291.962 218.104 310.568L220.081 308.312ZM189.393 227.84C189.393 194.862 198.738 167.544 217.353 145.775L215.072 143.825C195.927 166.216 186.393 194.258 186.393 227.84H189.393ZM217.351 145.776C236.219 123.764 262.492 112.7 296.373 112.7V109.7C261.773 109.7 234.606 121.036 215.074 143.824L217.351 145.776ZM296.373 112.7C326.148 112.7 350.078 121.243 368.31 138.218L370.355 136.022C351.467 118.437 326.757 109.7 296.373 109.7V112.7ZM368.32 138.227C386.861 155.197 396.317 177.506 396.633 205.297L399.632 205.263C399.308 176.734 389.564 153.603 370.345 136.013L368.32 138.227ZM396.633 205.28C396.633 215.733 395.524 226.026 393.307 236.159L396.238 236.801C398.501 226.454 399.633 215.947 399.633 205.28H396.633ZM394.773 234.98H252.693V237.98H394.773V234.98ZM251.2 236.633C252.981 253.951 258.181 267.167 266.987 276.056C275.818 284.97 288.083 289.34 303.573 289.34V286.34C288.662 286.34 277.247 282.15 269.118 273.944C260.964 265.713 255.924 253.249 254.185 236.327L251.2 236.633ZM303.573 289.34C320.366 289.34 332.199 285.315 338.39 276.716L335.955 274.964C330.626 282.365 320.059 286.34 303.573 286.34V289.34ZM338.367 276.748C344.517 268.655 348.341 261.245 349.683 254.534L346.742 253.946C345.524 260.035 341.988 267.025 335.978 274.932L338.367 276.748ZM347.939 255.715L399.779 265.315L400.326 262.365L348.486 252.765L347.939 255.715ZM335.782 200.655C337.104 189.42 334.616 178.836 328.36 168.957L325.825 170.563C331.729 179.884 334.041 189.78 332.803 200.305L335.782 200.655ZM328.379 168.988C322.263 158.795 311.431 153.86 296.373 153.86V156.86C310.754 156.86 320.402 161.525 325.806 170.532L328.379 168.988ZM296.373 153.86C283.217 153.86 272.843 158.154 265.467 166.871L267.758 168.809C274.462 160.886 283.928 156.86 296.373 156.86V153.86ZM265.467 166.871C258.205 175.454 253.638 186.617 251.688 200.268L254.657 200.692C256.547 187.463 260.94 176.866 267.758 168.809L265.467 166.871ZM253.173 201.98H334.293V198.98H253.173V201.98ZM442.484 130.88L441.919 129.491L441.146 129.805L441.005 130.627L442.484 130.88ZM489.524 115.52L489.825 116.989L489.839 116.987L489.853 116.983L489.524 115.52ZM595.604 129.44L596.478 128.221L596.478 128.221L595.604 129.44ZM645.044 294.08L646.544 294.058L646.514 292.073L644.613 292.643L645.044 294.08ZM645.524 326.72L646.235 328.041L647.037 327.609L647.024 326.698L645.524 326.72ZM559.124 294.08H557.624V294.164L557.633 294.247L559.124 294.08ZM559.124 293.6H560.624V287.841L557.814 292.868L559.124 293.6ZM532.724 323.36L531.803 322.176L531.795 322.182L531.787 322.189L532.724 323.36ZM444.404 322.88L445.216 321.619L445.216 321.619L444.404 322.88ZM454.484 222.08L453.923 220.689L453.916 220.692L454.484 222.08ZM559.124 211.04L558.932 212.528L560.624 212.746V211.04H559.124ZM554.324 171.2L552.877 171.595L552.882 171.615L552.888 171.635L554.324 171.2ZM505.844 156.8L506.03 158.288L506.067 158.284L506.104 158.277L505.844 156.8ZM490.484 161.6L489.813 160.258L489.208 160.561L489.034 161.215L490.484 161.6ZM482.324 192.32L482.164 193.812L483.443 193.948L483.773 192.705L482.324 192.32ZM432.884 187.04L431.405 186.787L431.136 188.362L432.724 188.532L432.884 187.04ZM559.124 243.68L560.617 243.821L560.624 243.751V243.68H559.124ZM559.124 240.8H560.624V239.476L559.31 239.312L559.124 240.8ZM543.284 238.88L543.098 240.368L543.109 240.37L543.284 238.88ZM499.124 244.16L499.752 245.522L499.774 245.512L499.795 245.502L499.124 244.16ZM492.404 285.44L491.232 286.377L491.232 286.377L492.404 285.44ZM542.324 281.12L543.28 282.276L543.284 282.272L542.324 281.12ZM443.049 132.269C461.888 124.606 477.472 119.523 489.825 116.989L489.222 114.051C476.615 116.637 460.84 121.794 441.919 129.491L443.049 132.269ZM489.853 116.983C502.515 114.134 517.6 112.7 535.124 112.7V109.7C517.448 109.7 502.132 111.146 489.194 114.057L489.853 116.983ZM535.124 112.7C558.209 112.7 578.055 118.703 594.73 130.659L596.478 128.221C579.233 115.857 558.758 109.7 535.124 109.7V112.7ZM594.73 130.659C611.222 142.484 619.544 160.384 619.544 184.64H622.544C622.544 159.616 613.905 140.716 596.478 128.221L594.73 130.659ZM619.544 184.64V278.72H622.544V184.64H619.544ZM619.544 278.72C619.544 284.509 620.822 289.132 623.641 292.315C626.491 295.532 630.682 297.02 635.924 297.02V294.02C631.245 294.02 627.997 292.708 625.887 290.325C623.746 287.908 622.544 284.131 622.544 278.72H619.544ZM635.924 297.02C638.971 297.02 642.157 296.512 645.475 295.517L644.613 292.643C641.531 293.568 638.637 294.02 635.924 294.02V297.02ZM643.544 294.102L644.024 326.742L647.024 326.698L646.544 294.058L643.544 294.102ZM644.813 325.399C632.539 332.008 619.822 335.3 606.644 335.3V338.3C620.346 338.3 633.549 334.872 646.235 328.041L644.813 325.399ZM606.644 335.3C592.647 335.3 581.97 331.804 574.407 325.004C566.842 318.204 562.188 307.915 560.614 293.913L557.633 294.247C559.26 308.725 564.125 319.796 572.401 327.236C580.678 334.676 592.16 338.3 606.644 338.3V335.3ZM560.624 294.08V293.6H557.624V294.08H560.624ZM557.814 292.868C551.848 303.546 543.191 313.318 531.803 322.176L533.645 324.544C545.296 315.482 554.24 305.414 560.433 294.332L557.814 292.868ZM531.787 322.189C520.909 330.891 506.863 335.3 489.524 335.3V338.3C507.385 338.3 522.139 333.749 533.661 324.531L531.787 322.189ZM489.524 335.3C474.158 335.3 459.397 330.758 445.216 321.619L443.591 324.141C458.21 333.562 473.529 338.3 489.524 338.3V335.3ZM445.216 321.619C431.381 312.703 424.304 297.276 424.304 274.88H421.304C421.304 297.924 428.627 314.497 443.591 324.141L445.216 321.619ZM424.304 274.88C424.304 261.794 426.905 251.04 432.01 242.532C437.105 234.04 444.756 227.68 455.052 223.468L453.916 220.692C443.091 225.12 434.903 231.88 429.438 240.988C423.982 250.08 421.304 261.406 421.304 274.88H424.304ZM455.044 223.471C476.295 214.908 499.143 210.62 523.604 210.62V207.62C498.784 207.62 475.553 211.972 453.923 220.689L455.044 223.471ZM523.604 210.62C537.322 210.62 549.094 211.258 558.932 212.528L559.316 209.552C549.313 208.262 537.406 207.62 523.604 207.62V210.62ZM560.624 211.04V203.84H557.624V211.04H560.624ZM560.624 203.84C560.624 192.495 559.003 181.468 555.759 170.765L552.888 171.635C556.045 182.052 557.624 192.785 557.624 203.84H560.624ZM555.771 170.805C554.214 165.096 550.643 160.808 545.171 157.987C539.756 155.194 532.528 153.86 523.604 153.86V156.86C532.28 156.86 538.972 158.166 543.796 160.653C548.565 163.112 551.554 166.744 552.877 171.595L555.771 170.805ZM523.604 153.86C517.13 153.86 511.121 154.345 505.583 155.323L506.104 158.277C511.446 157.335 517.278 156.86 523.604 156.86V153.86ZM505.658 155.312C500.352 155.975 495.068 157.631 489.813 160.258L491.155 162.942C496.139 160.449 501.096 158.905 506.03 158.288L505.658 155.312ZM489.034 161.215L480.874 191.935L483.773 192.705L491.933 161.985L489.034 161.215ZM482.483 190.828L433.043 185.548L432.724 188.532L482.164 193.812L482.483 190.828ZM434.362 187.293L443.962 131.133L441.005 130.627L431.405 186.787L434.362 187.293ZM560.624 243.68V240.8H557.624V243.68H560.624ZM559.31 239.312C554.186 238.671 548.902 238.031 543.459 237.39L543.109 240.37C548.545 241.009 553.822 241.649 558.938 242.288L559.31 239.312ZM543.47 237.392C538.289 236.744 533.106 236.42 527.924 236.42V239.42C532.981 239.42 538.039 239.736 543.098 240.368L543.47 237.392ZM527.924 236.42C516.85 236.42 507.014 238.538 498.453 242.818L499.795 245.502C507.874 241.462 517.237 239.42 527.924 239.42V236.42ZM498.495 242.798C494.048 244.851 490.678 247.997 488.439 252.217C486.212 256.414 485.144 261.593 485.144 267.68H488.144C488.144 261.927 489.156 257.266 491.089 253.623C493.01 250.003 495.88 247.309 499.752 245.522L498.495 242.798ZM485.144 267.68C485.144 275.009 487.149 281.273 491.232 286.377L493.575 284.503C489.978 280.007 488.144 274.431 488.144 267.68H485.144ZM491.232 286.377C495.478 291.684 502.585 294.14 512.084 294.14V291.14C503.022 291.14 497.009 288.796 493.575 284.503L491.232 286.377ZM512.084 294.14C523.351 294.14 533.762 290.153 543.28 282.276L541.367 279.964C532.326 287.447 522.577 291.14 512.084 291.14V294.14ZM543.284 282.272C553.285 273.938 558.994 261.029 560.617 243.821L557.63 243.539C556.054 260.251 550.562 272.302 541.363 279.968L543.284 282.272ZM823.536 115.52L823.158 116.971L823.194 116.981L823.23 116.988L823.536 115.52ZM846.096 124.64L847.584 124.452L847.494 123.735L846.876 123.359L846.096 124.64ZM855.696 200.48L855.864 201.971L857.375 201.801L857.184 200.292L855.696 200.48ZM808.656 205.76L807.192 206.083L807.482 207.401L808.824 207.251L808.656 205.76ZM800.496 168.8L801.961 168.477L801.822 167.846L801.268 167.514L800.496 168.8ZM764.976 171.2L763.916 170.139L763.9 170.155L763.884 170.172L764.976 171.2ZM757.296 285.44H755.796V286.94H757.296V285.44ZM795.696 285.44H797.196V283.94H795.696V285.44ZM795.696 332V333.5H797.196V332H795.696ZM666.576 332H665.076V333.5H666.576V332ZM666.576 285.44V283.94H665.076V285.44H666.576ZM695.376 285.44V286.94H696.876V285.44H695.376ZM695.376 162.56H696.876V161.06H695.376V162.56ZM664.176 162.56H662.676V164.06H664.176V162.56ZM664.176 115.52V114.02H662.676V115.52H664.176ZM752.496 115.52H753.996V114.02H752.496V115.52ZM752.496 156.8H750.996L753.94 157.207L752.496 156.8ZM769.296 125.6L768.196 124.581L768.194 124.583L769.296 125.6ZM803.376 114.14C809.301 114.14 815.892 115.076 823.158 116.971L823.915 114.069C816.461 112.124 809.611 111.14 803.376 111.14V114.14ZM823.23 116.988C830.727 118.55 838.088 121.522 845.316 125.921L846.876 123.359C839.384 118.798 831.705 115.69 823.842 114.052L823.23 116.988ZM844.608 124.828L854.208 200.668L857.184 200.292L847.584 124.452L844.608 124.828ZM855.529 198.989L808.489 204.269L808.824 207.251L855.864 201.971L855.529 198.989ZM810.121 205.437L801.961 168.477L799.032 169.123L807.192 206.083L810.121 205.437ZM801.268 167.514C794.753 163.605 788.879 161.54 783.696 161.54V164.54C788.113 164.54 793.439 166.315 799.725 170.086L801.268 167.514ZM783.696 161.54C776.22 161.54 769.608 164.447 763.916 170.139L766.037 172.261C771.224 167.073 777.093 164.54 783.696 164.54V161.54ZM763.884 170.172C758.411 175.987 755.796 184.416 755.796 195.2H758.796C758.796 184.864 761.302 177.293 766.069 172.228L763.884 170.172ZM755.796 195.2V285.44H758.796V195.2H755.796ZM757.296 286.94H795.696V283.94H757.296V286.94ZM794.196 285.44V332H797.196V285.44H794.196ZM795.696 330.5H666.576V333.5H795.696V330.5ZM668.076 332V285.44H665.076V332H668.076ZM666.576 286.94H695.376V283.94H666.576V286.94ZM696.876 285.44V162.56H693.876V285.44H696.876ZM695.376 161.06H664.176V164.06H695.376V161.06ZM665.676 162.56V115.52H662.676V162.56H665.676ZM664.176 117.02H752.496V114.02H664.176V117.02ZM750.996 115.52V156.8H753.996V115.52H750.996ZM753.94 157.207C757.405 144.921 762.901 134.74 770.398 126.617L768.194 124.583C760.332 133.1 754.627 143.719 751.053 156.393L753.94 157.207ZM770.397 126.619C778.045 118.359 788.962 114.14 803.376 114.14V111.14C788.35 111.14 776.547 115.561 768.196 124.581L770.397 126.619ZM1082.93 251.36L1084.42 251.528L1084.58 250.14L1083.2 249.885L1082.93 251.36ZM1057.01 308.96L1055.85 308.016L1055.84 308.022L1055.84 308.028L1057.01 308.96ZM904.851 309.44L903.845 310.552L903.854 310.56L904.851 309.44ZM907.731 140.48L906.738 139.356L906.738 139.356L907.731 140.48ZM1025.81 116L1025.46 117.459L1025.48 117.464L1025.5 117.468L1025.81 116ZM1066.13 130.88L1067.62 130.663L1067.51 129.916L1066.84 129.558L1066.13 130.88ZM1075.73 196.64L1075.89 198.132L1077.44 197.966L1077.22 196.423L1075.73 196.64ZM1026.29 201.92L1024.82 202.218L1025.09 203.557L1026.45 203.412L1026.29 201.92ZM1019.09 166.4L1020.56 166.102L1020.39 165.251L1019.57 164.977L1019.09 166.4ZM952.851 175.52L953.947 176.545L953.955 176.536L953.963 176.527L952.851 175.52ZM1031.09 241.76L1031.36 240.285L1029.82 239.998L1029.6 241.559L1031.09 241.76ZM1081.44 251.192C1079.24 270.696 1070.74 289.634 1055.85 308.016L1058.18 309.904C1073.36 291.166 1082.14 271.704 1084.42 251.528L1081.44 251.192ZM1055.84 308.028C1041.52 326.084 1017.26 335.3 982.611 335.3V338.3C1017.73 338.3 1043.07 328.956 1058.19 309.892L1055.84 308.028ZM982.611 335.3C951.563 335.3 926.015 326.28 905.849 308.32L903.854 310.56C924.648 329.08 950.94 338.3 982.611 338.3V335.3ZM905.858 308.328C886.109 290.46 876.111 263.568 876.111 227.36H873.111C873.111 264.112 883.273 291.94 903.845 310.552L905.858 308.328ZM876.111 227.36C876.111 189.251 887.058 160.759 908.725 141.604L906.738 139.356C884.245 159.241 873.111 188.668 873.111 227.36H876.111ZM908.725 141.604C930.512 122.343 956.872 112.7 987.891 112.7V109.7C956.191 109.7 929.11 119.577 906.738 139.356L908.725 141.604ZM987.891 112.7C999.597 112.7 1012.12 114.282 1025.46 117.459L1026.16 114.541C1012.62 111.318 999.866 109.7 987.891 109.7V112.7ZM1025.5 117.468C1039.12 120.317 1052.42 125.225 1065.42 132.202L1066.84 129.558C1053.6 122.454 1040.03 117.443 1026.12 114.532L1025.5 117.468ZM1064.65 131.097L1074.25 196.857L1077.22 196.423L1067.62 130.663L1064.65 131.097ZM1075.57 195.148L1026.13 200.428L1026.45 203.412L1075.89 198.132L1075.57 195.148ZM1027.76 201.622L1020.56 166.102L1017.62 166.698L1024.82 202.218L1027.76 201.622ZM1019.57 164.977C1006.99 160.785 995.944 158.66 986.451 158.66V161.66C995.518 161.66 1006.23 163.694 1018.62 167.823L1019.57 164.977ZM986.451 158.66C972.883 158.66 961.287 163.978 951.74 174.513L953.963 176.527C962.976 166.582 973.78 161.66 986.451 161.66V158.66ZM951.756 174.495C942.089 184.829 937.431 201.619 937.431 224.48H940.431C940.431 201.901 945.054 186.051 953.947 176.545L951.756 174.495ZM937.431 224.48C937.431 245.754 941.574 261.985 950.109 272.923C958.698 283.931 971.547 289.34 988.371 289.34V286.34C972.235 286.34 960.364 281.189 952.474 271.077C944.528 260.895 940.431 245.446 940.431 224.48H937.431ZM988.371 289.34C1000.88 289.34 1010.94 285.376 1018.39 277.34C1025.8 269.348 1030.48 257.488 1032.58 241.961L1029.6 241.559C1027.55 256.752 1023.02 267.932 1016.19 275.3C1009.4 282.624 1000.19 286.34 988.371 286.34V289.34ZM1030.82 243.235L1082.66 252.835L1083.2 249.885L1031.36 240.285L1030.82 243.235ZM1363.11 332V333.5H1364.61V332H1363.11ZM1243.59 332H1242.09V333.5H1243.59V332ZM1243.59 285.44V283.94H1242.09V285.44H1243.59ZM1272.39 285.44V286.94H1273.89V285.44H1272.39ZM1262.31 170.24L1261.14 171.177L1261.15 171.191L1261.16 171.205L1262.31 170.24ZM1201.35 171.2L1200.25 170.181L1200.24 170.192L1200.23 170.203L1201.35 171.2ZM1188.87 205.28L1187.37 205.212L1187.37 205.246V205.28H1188.87ZM1188.87 285.44H1187.37V286.94H1188.87V285.44ZM1217.67 285.44H1219.17V283.94H1217.67V285.44ZM1217.67 332V333.5H1219.17V332H1217.67ZM1098.15 332H1096.65V333.5H1098.15V332ZM1098.15 285.44V283.94H1096.65V285.44H1098.15ZM1126.95 285.44V286.94H1128.45V285.44H1126.95ZM1126.95 48.8H1128.45V47.3H1126.95V48.8ZM1098.15 48.8H1096.65V50.3H1098.15V48.8ZM1098.15 1.75999V0.259989H1096.65V1.75999H1098.15ZM1188.87 1.75999H1190.37V0.259989H1188.87V1.75999ZM1188.87 148.64H1187.37V154.242L1190.17 149.39L1188.87 148.64ZM1311.75 129.44L1312.69 128.274L1312.69 128.274L1311.75 129.44ZM1334.31 285.44H1332.81V286.94H1334.31V285.44ZM1363.11 285.44H1364.61V283.94H1363.11V285.44ZM1363.11 330.5H1243.59V333.5H1363.11V330.5ZM1245.09 332V285.44H1242.09V332H1245.09ZM1243.59 286.94H1272.39V283.94H1243.59V286.94ZM1273.89 285.44V210.08H1270.89V285.44H1273.89ZM1273.89 210.08C1273.89 191.413 1270.52 177.688 1263.46 169.275L1261.16 171.205C1267.53 178.792 1270.89 191.627 1270.89 210.08H1273.89ZM1263.48 169.303C1256.74 160.879 1246.99 156.74 1234.47 156.74V159.74C1246.27 159.74 1255.08 163.601 1261.14 171.177L1263.48 169.303ZM1234.47 156.74C1220.06 156.74 1208.59 161.175 1200.25 170.181L1202.45 172.219C1210.11 163.945 1220.72 159.74 1234.47 159.74V156.74ZM1200.23 170.203C1192.27 179.153 1188.02 190.866 1187.37 205.212L1190.37 205.348C1191 191.534 1195.07 180.527 1202.47 172.197L1200.23 170.203ZM1187.37 205.28V285.44H1190.37V205.28H1187.37ZM1188.87 286.94H1217.67V283.94H1188.87V286.94ZM1216.17 285.44V332H1219.17V285.44H1216.17ZM1217.67 330.5H1098.15V333.5H1217.67V330.5ZM1099.65 332V285.44H1096.65V332H1099.65ZM1098.15 286.94H1126.95V283.94H1098.15V286.94ZM1128.45 285.44V48.8H1125.45V285.44H1128.45ZM1126.95 47.3H1098.15V50.3H1126.95V47.3ZM1099.65 48.8V1.75999H1096.65V48.8H1099.65ZM1098.15 3.25999H1188.87V0.259989H1098.15V3.25999ZM1187.37 1.75999V148.64H1190.37V1.75999H1187.37ZM1190.17 149.39C1204.27 124.953 1226.93 112.7 1258.47 112.7V109.7C1226 109.7 1202.27 122.407 1187.57 147.89L1190.17 149.39ZM1258.47 112.7C1278.63 112.7 1296.05 118.676 1310.81 130.606L1312.69 128.274C1297.37 115.884 1279.27 109.7 1258.47 109.7V112.7ZM1310.81 130.606C1325.39 142.396 1332.81 160.776 1332.81 186.08H1335.81C1335.81 160.184 1328.19 140.804 1312.69 128.274L1310.81 130.606ZM1332.81 186.08V285.44H1335.81V186.08H1332.81ZM1334.31 286.94H1363.11V283.94H1334.31V286.94ZM1361.61 285.44V332H1364.61V285.44H1361.61Z" />
</svg>
