<svg xmlns="http://www.w3.org/2000/svg" viewBox="0 0 58 58">
   <path d="M50.95 12.187l-.771-.771L40.084 1.321 39.313.55A1.891 1.891 0 0037.985 0H8.963C7.777 0 6.5.916 6.5 2.926V56c0 .837.842 1.653 1.838 1.91.05.013.098.032.15.042.156.031.315.048.475.048h40.074c.16 0 .319-.017.475-.048.052-.01.1-.029.15-.042.996-.257 1.838-1.073 1.838-1.91V13.978c0-.767-.092-1.333-.55-1.791zM47.935 12H39.5V3.565L47.935 12zM8.963 56c-.071 0-.135-.026-.198-.049a.458.458 0 01-.265-.414V41h41v14.537a.46.46 0 01-.265.414c-.063.023-.127.049-.198.049H8.963zM8.5 39V2.926c0-.217.033-.926.463-.926h28.595a1.54 1.54 0 00-.058.391V14h11.609c.135 0 .264-.025.39-.058l.001.036V39h-41z"/>
   <path d="M22.227 43.924l-1.928 4.101h-.137l-1.777-4.101h-1.873l2.72 5.181L16.676 54h1.9l1.723-3.801h.137L22.035 54h1.901l-2.557-4.895 2.721-5.181zM28.037 43.924h-1.668V54h6.303v-1.244h-4.635zM38.94 49.064a5.399 5.399 0 00-1.019-.581 12.769 12.769 0 01-1.012-.492 3.047 3.047 0 01-.779-.588c-.21-.224-.314-.518-.314-.882 0-.146.036-.299.109-.458.073-.159.173-.303.301-.431.127-.128.273-.234.438-.321s.337-.139.52-.157c.328-.027.597-.032.807-.014.209.019.378.05.506.096.127.046.226.091.294.137s.13.082.185.109c.009-.009.036-.055.082-.137.045-.082.1-.185.164-.308l.205-.396c.073-.142.137-.271.191-.39-.265-.173-.611-.299-1.039-.376a7.188 7.188 0 00-1.271-.116c-.41 0-.8.063-1.169.191s-.693.313-.971.554c-.278.241-.499.535-.663.882s-.246.743-.246 1.189c0 .492.104.902.314 1.23.209.328.474.613.793.854.319.241.661.451 1.025.629.364.178.704.355 1.019.533s.576.376.786.595c.209.219.314.483.314.793 0 .511-.148.896-.444 1.155-.296.26-.723.39-1.278.39a3.49 3.49 0 01-.588-.055 5.937 5.937 0 01-.629-.144c-.21-.06-.413-.123-.608-.191a2.883 2.883 0 01-.485-.212l-.287 1.176c.155.137.339.253.554.349.214.096.439.171.677.226.237.055.472.094.704.116s.458.034.677.034c.51 0 .966-.077 1.367-.232.401-.155.738-.362 1.012-.622s.485-.561.636-.902.226-.695.226-1.06c0-.538-.105-.978-.314-1.319a3.004 3.004 0 00-.79-.854zM24.5 13h-12v22h33V17h-21v-4zm-10 6h8v2h-8v-2zm0 4h8v2h-8v-2zm0 4h8v2h-8v-2zm8 6h-8v-2h8v2zm21 0h-19v-2h19v2zm0-4h-19v-2h19v2zm0-4h-19v-2h19v2zm0-6v2h-19v-2h19zm-29-2v-2h8v2h-8z"/>
</svg>